<?xml version="1.0" encoding="utf-8"?>
<!-- Generator: Adobe Illustrator 21.0.0, SVG Export Plug-In . SVG Version: 6.00 Build 0)  -->
<svg version="1.1" id="Capa_1" xmlns="http://www.w3.org/2000/svg" xmlns:xlink="http://www.w3.org/1999/xlink" x="0px" y="0px"
	 viewBox="0 0 424.2 424.2" style="enable-background:new 0 0 424.2 424.2;" xml:space="preserve">
<style type="text/css">
	.st0{fill:#333333;}
	.st1{fill:#3C92CA;}
</style>
<path class="st0" d="M364.5,210.5c20.7,3.8,36.4,21.9,36.4,43.6c0,22.5-16.9,41.2-38.6,44c-5.3,30.7-19.9,59-42.4,81.5
	c-28.8,28.8-67.1,44.6-107.8,44.6h0c-40.8,0-79.1-16.1-107.9-45.3c-22.1-22.4-36.5-50.4-42-80.7c-21.9-2.7-38.9-21.4-38.9-44
	c0-21.7,15.7-39.8,36.4-43.6v-79.7c-1.8,1.1-3.6,2.4-5.2,4c-4.7,4.5-11.6,5.3-17.1,1.8c-5.5-3.5-7.8-10-5.7-16.2l3.9-11.5
	c2.1-6.3,5.2-12.1,9.2-17.3C49.2,50.1,77.9,20.9,128,7c38.3-10.6,78.9-9.2,117.5,3.9l50.2,17c15.3-5.4,32.1-3.3,45.7,5.7
	c14.5,9.6,23.1,25.7,23.1,43.1V210.5z M384.9,254.2c0-12.9-8.6-23.8-20.4-27.2v44.9c0,3.2-0.1,6.4-0.3,9.6
	C376.1,278.1,384.9,267.2,384.9,254.2z M348.5,271.8v-74.3c-33.7-4-59.9-32.7-59.9-67.4v-21.7c-22.5,23.7-51.8,39.7-84.4,45.9
	C164,162,123,153.9,88.8,131.6c-4.1-2.6-8.6-4.1-13.1-4.4v143.2c0,36.7,14.2,71.2,39.9,97.3c25.8,26.2,60.1,40.6,96.5,40.6
	c0,0,0,0,0,0c36.4,0,70.7-14.2,96.4-40C334.3,342.5,348.5,308.3,348.5,271.8z M348.5,181.4V76.7c0-12.2-5.8-23-16-29.7
	c-8.6-5.7-18.8-7.4-28.6-4.8l0.7,88C304.6,156,323.7,177.5,348.5,181.4z M288.6,83.6L288,42.2l-47.6-16.2
	c-35.6-12.1-72.9-13.3-108.1-3.6c-35.4,9.8-57.9,27.2-67.2,52c1.4-0.7,2.8-1.4,4.2-2c15.9-6.8,34-6.5,49.6,0.8
	c17.8,8.3,39.4,3.8,52.5-10.9l2-2.2c2.9-3.3,8-3.6,11.3-0.7c3.3,2.9,3.6,8,0.7,11.3l-2,2.3c-17.7,20-47,26.1-71.2,14.8
	c-11.5-5.4-24.9-5.6-36.6-0.6c-11.7,5-20.7,14.8-24.8,26.8l-1.6,4.6c14.4-9.8,33.3-10.3,48.3-0.4c30.8,20.1,67.6,27.3,103.7,20.5
	C236.4,131.9,267.4,112.4,288.6,83.6z M60.1,281.5c-0.3-3.7-0.4-7.4-0.4-11.2V227c-11.8,3.5-20.4,14.4-20.4,27.2
	C39.4,267.2,48.2,278.2,60.1,281.5z"/>
<path class="st1" d="M348.5,76.7v104.7c-24.8-3.9-43.9-25.4-43.9-51.3l-0.7-88c9.8-2.6,20-0.9,28.6,4.8
	C342.7,53.7,348.5,64.5,348.5,76.7z"/>
<path class="st1" d="M316.6,222.8c3.1,3.1,3.1,8.2,0,11.3c-1.6,1.6-3.6,2.3-5.6,2.3c-2,0-4.1-0.8-5.7-2.3c-5.7-5.7-15-5.7-20.7,0
	c-3.1,3.1-8.2,3.1-11.3,0c-3.1-3.1-3.1-8.2,0-11.3C285.2,210.9,304.7,210.9,316.6,222.8z"/>
<path class="st1" d="M295,246.9c8.3,0,15,6.7,15,15s-6.7,15-15,15s-15-6.7-15-15S286.7,246.9,295,246.9z"/>
<path class="st1" d="M288,42.2l0.6,41.3c-21.2,28.8-52.1,48.3-87.4,55.1c-36.1,6.9-72.9-0.4-103.7-20.5c-15-9.8-34-9.4-48.3,0.4
	l1.6-4.6c4.1-12.1,13.1-21.8,24.8-26.8c11.7-5,25-4.8,36.6,0.6c24.2,11.3,53.5,5.2,71.2-14.8l2-2.3c2.9-3.3,2.6-8.4-0.7-11.3
	c-3.3-2.9-8.4-2.6-11.3,0.7l-2,2.2c-13,14.8-34.6,19.3-52.5,10.9c-15.7-7.3-33.7-7.6-49.6-0.8c-1.4,0.6-2.8,1.3-4.2,2
	c9.3-24.8,31.8-42.3,67.2-52c35.2-9.7,72.5-8.4,108.1,3.6L288,42.2z"/>
<path class="st1" d="M238.8,325.5c3.1,3.1,3.1,8.2,0,11.3c-7.1,7.1-16.6,11.1-26.7,11.1c-10.1,0-19.6-3.9-26.7-11.1
	c-3.1-3.1-3.1-8.2,0-11.3c3.1-3.1,8.2-3.1,11.3,0c4.1,4.1,9.6,6.4,15.4,6.4s11.3-2.3,15.4-6.4C230.7,322.3,235.7,322.3,238.8,325.5z
	"/>
<path class="st1" d="M150.9,222.8c3.1,3.1,3.1,8.2,0,11.3c-1.6,1.6-3.6,2.3-5.7,2.3s-4.1-0.8-5.7-2.3c-2.8-2.8-6.4-4.3-10.3-4.3
	c-3.9,0-7.6,1.5-10.3,4.3c-3.1,3.1-8.2,3.1-11.3,0c-3.1-3.1-3.1-8.2,0-11.3c5.8-5.8,13.5-9,21.6-9
	C137.5,213.9,145.2,217.1,150.9,222.8z"/>
<path class="st1" d="M129.3,246.9c8.3,0,15,6.7,15,15s-6.7,15-15,15c-8.3,0-15-6.7-15-15S121,246.9,129.3,246.9z"/>
</svg>
